<svg xmlns="http://www.w3.org/2000/svg" version="1.1" xmlns:xlink="http://www.w3.org/1999/xlink" width="1000" height="1000"><g clip-path="url(#SvgjsClipPath1492)"><rect width="1000" height="1000" fill="#000000"></rect><g transform="matrix(2,0,0,2,0,0)"><svg xmlns="http://www.w3.org/2000/svg" version="1.1" xmlns:xlink="http://www.w3.org/1999/xlink" width="500" height="500"><svg xmlns="http://www.w3.org/2000/svg" xmlns:xlink="http://www.w3.org/1999/xlink" width="500" zoomAndPan="magnify" viewBox="0 0 375 374.999991" height="500" preserveAspectRatio="xMidYMid meet" version="1.0"><defs><g></g><clipPath id="9bc2960baa"><rect x="0" width="314" y="0" height="245"></rect></clipPath><clipPath id="SvgjsClipPath1492"><rect width="1000" height="1000" x="0" y="0" rx="500" ry="500"></rect></clipPath></defs><rect x="-37.5" width="450" fill="#ffffff" y="-37.499999" height="449.999989" fill-opacity="1"></rect><rect x="-37.5" width="450" fill="#000000" y="-37.499999" height="449.999989" fill-opacity="1"></rect><g transform="matrix(1, 0, 0, 1, 27, 65)"><g clip-path="url(#9bc2960baa)"><g fill="#ffffff" fill-opacity="1"><g transform="translate(0.499888, 195.941824)"><g><path d="M 40.203125 -144 L 40.203125 -86.40625 L 80 -86.40625 L 80 -144 L 105 -144 L 105 0 L 80 0 L 80 -63.40625 L 40.203125 -63.40625 L 40.203125 0 L 15 0 L 15 -144 Z M 40.203125 -144 "></path></g></g></g><g fill="#ffffff" fill-opacity="1"><g transform="translate(100.499086, 195.941824)"><g><path d="M 60 2 C 52.9375 2 46.4375 1.066406 40.5 -0.796875 C 34.5625 -2.660156 29.457031 -5.359375 25.1875 -8.890625 C 20.925781 -12.429688 17.5625 -16.664062 15.09375 -21.59375 C 12.632812 -26.53125 11.269531 -32.066406 11 -38.203125 L 36.59375 -38.203125 C 36.863281 -32.460938 39.164062 -27.957031 43.5 -24.6875 C 47.832031 -21.425781 53.53125 -19.796875 60.59375 -19.796875 C 67.925781 -19.796875 73.625 -21.460938 77.6875 -24.796875 C 81.757812 -28.128906 83.796875 -32.597656 83.796875 -38.203125 C 83.796875 -43.128906 82.257812 -47.394531 79.1875 -51 C 76.125 -54.601562 71.796875 -57.269531 66.203125 -59 L 51 -63.40625 C 26.195312 -70.195312 13.796875 -84.460938 13.796875 -106.203125 C 13.796875 -112.203125 14.894531 -117.664062 17.09375 -122.59375 C 19.300781 -127.53125 22.40625 -131.765625 26.40625 -135.296875 C 30.40625 -138.828125 35.269531 -141.523438 41 -143.390625 C 46.726562 -145.265625 53.195312 -146.203125 60.40625 -146.203125 C 74 -146.203125 84.960938 -142.703125 93.296875 -135.703125 C 101.628906 -128.703125 106.128906 -119.066406 106.796875 -106.796875 L 81.40625 -106.796875 C 81.132812 -112.265625 79 -116.53125 75 -119.59375 C 71 -122.664062 65.929688 -124.203125 59.796875 -124.203125 C 53.265625 -124.203125 48.128906 -122.664062 44.390625 -119.59375 C 40.660156 -116.53125 38.796875 -112.46875 38.796875 -107.40625 C 38.796875 -97.800781 44.597656 -91.332031 56.203125 -88 L 72.203125 -83.59375 C 84.203125 -80.257812 93.332031 -74.828125 99.59375 -67.296875 C 105.863281 -59.765625 109 -50.46875 109 -39.40625 C 109 -33.132812 107.832031 -27.460938 105.5 -22.390625 C 103.164062 -17.328125 99.863281 -12.992188 95.59375 -9.390625 C 91.332031 -5.796875 86.203125 -3 80.203125 -1 C 74.203125 1 67.46875 2 60 2 Z M 60 2 "></path></g></g></g><g fill="#ffffff" fill-opacity="1"><g transform="translate(200.498285, 195.941824)"><g><path d="M 14.796875 0 L 14.796875 -144 L 60.59375 -144 C 75 -144 86.332031 -140.664062 94.59375 -134 C 102.863281 -127.332031 107 -118.265625 107 -106.796875 C 107 -97.992188 104.53125 -90.859375 99.59375 -85.390625 C 94.664062 -79.929688 88 -76.867188 79.59375 -76.203125 L 79.59375 -74.40625 C 88.925781 -73.738281 96.257812 -70.46875 101.59375 -64.59375 C 106.925781 -58.726562 109.59375 -51 109.59375 -41.40625 C 109.59375 -35 108.492188 -29.257812 106.296875 -24.1875 C 104.097656 -19.125 100.960938 -14.789062 96.890625 -11.1875 C 92.828125 -7.59375 87.863281 -4.828125 82 -2.890625 C 76.132812 -0.960938 69.535156 0 62.203125 0 Z M 39.203125 -64 L 39.203125 -20.796875 L 60.59375 -20.796875 C 68.0625 -20.796875 73.863281 -22.695312 78 -26.5 C 82.132812 -30.300781 84.203125 -35.601562 84.203125 -42.40625 C 84.203125 -49.195312 82.132812 -54.492188 78 -58.296875 C 73.863281 -62.097656 68.0625 -64 60.59375 -64 Z M 39.203125 -123.203125 L 39.203125 -84.59375 L 60.203125 -84.59375 C 66.734375 -84.59375 71.929688 -86.328125 75.796875 -89.796875 C 79.660156 -93.265625 81.59375 -98 81.59375 -104 C 81.59375 -110 79.691406 -114.695312 75.890625 -118.09375 C 72.097656 -121.5 66.9375 -123.203125 60.40625 -123.203125 Z M 39.203125 -123.203125 "></path></g></g></g></g></g><path stroke-linecap="butt" transform="matrix(0.75, 0, 0, 0.75, 132.612697, 311.24998)" fill="none" stroke-linejoin="miter" d="M 0.000779544 17.500028 L 273.183089 17.500028 " stroke="#ffffff" stroke-width="35" stroke-opacity="1" stroke-miterlimit="4"></path><path stroke-linecap="butt" transform="matrix(0.75, 0, 0, 0.75, 37.500002, 37.499998)" fill="none" stroke-linejoin="miter" d="M -0.00000271667 17.500004 L 273.182307 17.500004 " stroke="#ffffff" stroke-width="35" stroke-opacity="1" stroke-miterlimit="4"></path></svg></svg></g></g></svg>